<svg width="240" height="240" viewBox="0 0 240 240" fill="none" xmlns="http://www.w3.org/2000/svg">
<g clip-path="url(#clip0_40_18)">
<path d="M120 240C186.274 240 240 186.274 240 120C240 53.7258 186.274 0 120 0C53.7258 0 0 53.7258 0 120C0 186.274 53.7258 240 120 240Z" fill="url(#paint0_linear_40_18)"/>
<path d="M44.6909 125.87C58.7189 118.143 74.3779 111.694 89.0089 105.212C114.18 94.5949 139.451 84.1619 164.977 74.4489C169.943 72.7939 178.867 71.1759 179.742 78.5359C179.262 88.9539 177.292 99.3109 175.94 109.668C172.509 132.444 168.542 155.142 164.675 177.843C163.342 185.404 153.87 189.319 147.809 184.48C133.243 174.64 118.565 164.898 104.185 154.83C99.4749 150.044 103.843 143.17 108.049 139.752C120.046 127.929 132.769 117.884 144.139 105.45C147.206 98.0439 138.144 104.286 135.155 106.199C118.731 117.517 102.709 129.526 85.3929 139.473C76.5479 144.342 66.2389 140.181 57.3979 137.463C49.4709 134.182 37.8549 130.875 44.6899 125.871L44.6909 125.87Z" fill="white"/>
</g>
<defs>
<linearGradient id="paint0_linear_40_18" x1="160.01" y1="40.008" x2="100.01" y2="180" gradientUnits="userSpaceOnUse">
<stop stop-color="#37AEE2"/>
<stop offset="1" stop-color="#1E96C8"/>
</linearGradient>
<clipPath id="clip0_40_18">
<rect width="240" height="240" fill="white"/>
</clipPath>
</defs>
</svg>
